<svg xmlns="http://www.w3.org/2000/svg" width="2400" height="1420" viewBox="0 0 2400 1420">
<rect width="100%" height="100%" fill="white"/>

    <defs>
      <marker id="arrow-gray" markerWidth="12" markerHeight="12" refX="10" refY="6" orient="auto" markerUnits="strokeWidth">
        <path d="M 0 0 L 12 6 L 0 12 z" fill="#64748b"/>
      </marker>
      <marker id="arrow-green" markerWidth="12" markerHeight="12" refX="10" refY="6" orient="auto" markerUnits="strokeWidth">
        <path d="M 0 0 L 12 6 L 0 12 z" fill="#22c55e"/>
      </marker>
    </defs>
    
<polyline points="1200,130 1200,210" fill="none" stroke="#22c55e" stroke-width="3" stroke-linejoin="round" marker-end="url(#arrow-green)"/>
<polyline points="1200,330 1200,390 385,390 385,460" fill="none" stroke="#64748b" stroke-width="3" stroke-linejoin="round" marker-end="url(#arrow-gray)"/>
<polyline points="1200,390 1200,460" fill="none" stroke="#64748b" stroke-width="3" stroke-linejoin="round" marker-end="url(#arrow-gray)"/>
<polyline points="1200,390 2015,390 2015,460" fill="none" stroke="#64748b" stroke-width="3" stroke-linejoin="round" marker-end="url(#arrow-gray)"/>
<text x="1200" y="378" font-family="Microsoft YaHei, SimHei, Arial, sans-serif" font-size="24" font-weight="700" text-anchor="middle" fill="#475569">交互入口</text>
<polyline points="385,570 385,705" fill="none" stroke="#64748b" stroke-width="3" stroke-linejoin="round" marker-end="url(#arrow-gray)"/>
<polyline points="1200,570 1200,705" fill="none" stroke="#64748b" stroke-width="3" stroke-linejoin="round" marker-end="url(#arrow-gray)"/>
<polyline points="2015,570 2015,705" fill="none" stroke="#64748b" stroke-width="3" stroke-linejoin="round" marker-end="url(#arrow-gray)"/>
<polyline points="385,825 385,905 1200,905 1200,970" fill="none" stroke="#64748b" stroke-width="3" stroke-linejoin="round" marker-end="url(#arrow-gray)"/>
<polyline points="1200,825 1200,970" fill="none" stroke="#64748b" stroke-width="3" stroke-linejoin="round" marker-end="url(#arrow-gray)"/>
<polyline points="2015,825 2015,905 1200,905 1200,970" fill="none" stroke="#64748b" stroke-width="3" stroke-linejoin="round" marker-end="url(#arrow-gray)"/>
<polyline points="1200,1090 1200,1160 545,1160 545,1225" fill="none" stroke="#64748b" stroke-width="3" stroke-linejoin="round" marker-end="url(#arrow-gray)"/>
<polyline points="1200,1160 1245,1225" fill="none" stroke="#64748b" stroke-width="3" stroke-linejoin="round" marker-end="url(#arrow-gray)"/>
<polyline points="1200,1160 1945,1160 1945,1225" fill="none" stroke="#64748b" stroke-width="3" stroke-linejoin="round" marker-end="url(#arrow-gray)"/>
<rect x="850" y="40" width="700" height="90" rx="14" fill="#dcfce7" stroke="#22c55e" stroke-width="3"/><text font-family="Microsoft YaHei, SimHei, Arial, sans-serif" font-size="26" fill="#1f2937" text-anchor="middle"><tspan x="1200.0" y="77.7">学生数字孪生画像模型</tspan><tspan x="1200.0" y="111.0">掌握度 / 投入 / 薄弱点 / 趋势 / 风险</tspan></text>
<rect x="760" y="210" width="880" height="120" rx="14" fill="#f3e8ff" stroke="#a855f7" stroke-width="3"/><text font-family="Microsoft YaHei, SimHei, Arial, sans-serif" font-size="26" fill="#1f2937" text-anchor="middle"><tspan x="1200.0" y="262.7">学生画像面板</tspan><tspan x="1200.0" y="296.0">雷达图 / 薄弱点列表 / 趋势折线 / 预警卡片</tspan></text>
<rect x="80" y="460" width="610" height="110" rx="14" fill="#e0f2fe" stroke="#0ea5e9" stroke-width="3"/><text font-family="Microsoft YaHei, SimHei, Arial, sans-serif" font-size="26" fill="#1f2937" text-anchor="middle"><tspan x="385.0" y="507.7">点击“学习投入”得分</tspan><tspan x="385.0" y="541.0">查看学习时长与登录频次</tspan></text>
<rect x="895" y="460" width="610" height="110" rx="14" fill="#e0f2fe" stroke="#0ea5e9" stroke-width="3"/><text font-family="Microsoft YaHei, SimHei, Arial, sans-serif" font-size="26" fill="#1f2937" text-anchor="middle"><tspan x="1200.0" y="507.7">点击“薄弱知识点”</tspan><tspan x="1200.0" y="541.0">查看错题快照与 5E 求助记录</tspan></text>
<rect x="1710" y="460" width="610" height="110" rx="14" fill="#e0f2fe" stroke="#0ea5e9" stroke-width="3"/><text font-family="Microsoft YaHei, SimHei, Arial, sans-serif" font-size="26" fill="#1f2937" text-anchor="middle"><tspan x="2015.0" y="507.7">点击趋势折线异常点</tspan><tspan x="2015.0" y="541.0">读取低谷期历史画像快照</tspan></text>
<rect x="80" y="705" width="610" height="120" rx="14" fill="#fff7ed" stroke="#fb923c" stroke-width="3"/><text font-family="Microsoft YaHei, SimHei, Arial, sans-serif" font-size="26" fill="#1f2937" text-anchor="middle"><tspan x="385.0" y="757.7">投入度证据明细</tspan><tspan x="385.0" y="791.0">单日学习时长 / 登录频次 / 资源访问</tspan></text>
<rect x="895" y="705" width="610" height="120" rx="14" fill="#fff7ed" stroke="#fb923c" stroke-width="3"/><text font-family="Microsoft YaHei, SimHei, Arial, sans-serif" font-size="26" fill="#1f2937" text-anchor="middle"><tspan x="1200.0" y="757.7">薄弱点证据链</tspan><tspan x="1200.0" y="791.0">历史错题 / 测验结果 / 智能体求助</tspan></text>
<rect x="1710" y="705" width="610" height="120" rx="14" fill="#fff7ed" stroke="#fb923c" stroke-width="3"/><text font-family="Microsoft YaHei, SimHei, Arial, sans-serif" font-size="26" fill="#1f2937" text-anchor="middle"><tspan x="2015.0" y="757.7">快照对比结果</tspan><tspan x="2015.0" y="791.0">低谷画像 / 当前画像 / 变化原因</tspan></text>
<rect x="590" y="970" width="1220" height="120" rx="14" fill="#dcfce7" stroke="#22c55e" stroke-width="3"/><text font-family="Microsoft YaHei, SimHei, Arial, sans-serif" font-size="26" fill="#1f2937" text-anchor="middle"><tspan x="1200.0" y="1022.7">面板生成可解释展示结果</tspan><tspan x="1200.0" y="1056.0">指标分数 + 证据清单 + 快照对比 + 风险提示</tspan></text>
<rect x="285" y="1225" width="520" height="90" rx="14" fill="#f8fafc" stroke="#94a3b8" stroke-width="3"/><text font-family="Microsoft YaHei, SimHei, Arial, sans-serif" font-size="26" fill="#1f2937" text-anchor="middle"><tspan x="545.0" y="1262.7">学生理解自身状态</tspan><tspan x="545.0" y="1296.0">知道薄弱项与证据来源</tspan></text>
<rect x="985" y="1225" width="520" height="90" rx="14" fill="#f8fafc" stroke="#94a3b8" stroke-width="3"/><text font-family="Microsoft YaHei, SimHei, Arial, sans-serif" font-size="26" fill="#1f2937" text-anchor="middle"><tspan x="1245.0" y="1262.7">教师穿透查看个体证据</tspan><tspan x="1245.0" y="1296.0">支撑后续诊断与干预</tspan></text>
<rect x="1685" y="1225" width="520" height="90" rx="14" fill="#fef2f2" stroke="#ef4444" stroke-width="3"/><text font-family="Microsoft YaHei, SimHei, Arial, sans-serif" font-size="26" fill="#1f2937" text-anchor="middle"><tspan x="1945.0" y="1262.7">边界：本模块展示状态与证据</tspan><tspan x="1945.0" y="1296.0">不生成根因诊断结论</tspan></text>
</svg>