<svg xmlns="http://www.w3.org/2000/svg" width="2400" height="1180" viewBox="0 0 2400 1180">
<defs>
<marker id="arrow" markerWidth="12" markerHeight="12" refX="10" refY="6" orient="auto" markerUnits="strokeWidth">
<path d="M2,2 L10,6 L2,10 Z" fill="#475569"/>
</marker>
</defs>
<rect x="0" y="0" width="100%" height="100%" fill="#FFFFFF"/>
<text x="1200.0" y="58" font-family="Microsoft YaHei, SimHei, Arial, sans-serif" font-size="38" font-weight="700" fill="#111827" text-anchor="middle">AI-Education 整体业务闭环流程</text>
<rect x="90" y="170" width="360" height="125" rx="16" ry="16" fill="#D7EBFF" stroke="#2F5F8F" stroke-width="2"/><text font-family="Microsoft YaHei, SimHei, Arial, sans-serif" font-size="28" font-weight="700" fill="#1F2937" text-anchor="middle"><tspan x="270.0" y="198.5">课程底座建设</tspan><tspan x="270.0" y="232.5">教师维护课程结构</tspan><tspan x="270.0" y="266.5">资源、作业、岗位能力映射</tspan></text><rect x="520" y="170" width="360" height="125" rx="16" ry="16" fill="#DDF3E5" stroke="#2F7D52" stroke-width="2"/><text font-family="Microsoft YaHei, SimHei, Arial, sans-serif" font-size="28" font-weight="700" fill="#1F2937" text-anchor="middle"><tspan x="700.0" y="198.5">学生学习执行</tspan><tspan x="700.0" y="232.5">学习资源、测验、作业</tspan><tspan x="700.0" y="266.5">互动和干预任务</tspan></text><path d="M 450,232.5 L 520,232.5" fill="none" stroke="#475569" stroke-width="2.2" marker-end="url(#arrow)"/><rect x="950" y="170" width="360" height="125" rx="16" ry="16" fill="#DDF3E5" stroke="#2F7D52" stroke-width="2"/><text font-family="Microsoft YaHei, SimHei, Arial, sans-serif" font-size="28" font-weight="700" fill="#1F2937" text-anchor="middle"><tspan x="1130.0" y="198.5">学习证据沉淀</tspan><tspan x="1130.0" y="232.5">测验、作业、代码题</tspan><tspan x="1130.0" y="266.5">行为与互动记录</tspan></text><path d="M 880,232.5 L 950,232.5" fill="none" stroke="#475569" stroke-width="2.2" marker-end="url(#arrow)"/><rect x="1380" y="170" width="360" height="125" rx="16" ry="16" fill="#FFE7B8" stroke="#9A6A19" stroke-width="2"/><text font-family="Microsoft YaHei, SimHei, Arial, sans-serif" font-size="28" font-weight="700" fill="#1F2937" text-anchor="middle"><tspan x="1560.0" y="198.5">画像与诊断</tspan><tspan x="1560.0" y="232.5">学生数字孪生更新</tspan><tspan x="1560.0" y="266.5">诊断智能体解释原因</tspan></text><path d="M 1310,232.5 L 1380,232.5" fill="none" stroke="#475569" stroke-width="2.2" marker-end="url(#arrow)"/><rect x="1810" y="170" width="360" height="125" rx="16" ry="16" fill="#E8D9FF" stroke="#7253A3" stroke-width="2"/><text font-family="Microsoft YaHei, SimHei, Arial, sans-serif" font-size="28" font-weight="700" fill="#1F2937" text-anchor="middle"><tspan x="1990.0" y="198.5">路径与干预</tspan><tspan x="1990.0" y="232.5">个性化路径安排</tspan><tspan x="1990.0" y="266.5">教师审核干预任务</tspan></text><path d="M 1740,232.5 L 1810,232.5" fill="none" stroke="#475569" stroke-width="2.2" marker-end="url(#arrow)"/><rect x="420" y="560" width="1560" height="360" rx="22" ry="22" fill="#F2EAFE" stroke="#7253A3" stroke-width="2"/><text font-family="Microsoft YaHei, SimHei, Arial, sans-serif" font-size="30" font-weight="700" fill="#111827" text-anchor="middle"><tspan x="1200.0" y="602.0">教师反馈与课程优化</tspan></text><rect x="475" y="650" width="420" height="130" rx="16" ry="16" fill="#E8D9FF" stroke="#7253A3" stroke-width="2"/><text font-family="Microsoft YaHei, SimHei, Arial, sans-serif" font-size="26" font-weight="400" fill="#1F2937" text-anchor="middle"><tspan x="685.0" y="681.0">教师看板</tspan><tspan x="685.0" y="715.0">风险学生 / 薄弱知识点</tspan><tspan x="685.0" y="749.0">证据下钻</tspan></text><rect x="990" y="650" width="420" height="130" rx="16" ry="16" fill="#E8D9FF" stroke="#7253A3" stroke-width="2"/><text font-family="Microsoft YaHei, SimHei, Arial, sans-serif" font-size="26" font-weight="400" fill="#1F2937" text-anchor="middle"><tspan x="1200.0" y="681.0">课程数字孪生</tspan><tspan x="1200.0" y="715.0">课程健康 / 资源缺口</tspan><tspan x="1200.0" y="749.0">能力风险</tspan></text><rect x="1505" y="650" width="420" height="130" rx="16" ry="16" fill="#E8D9FF" stroke="#7253A3" stroke-width="2"/><text font-family="Microsoft YaHei, SimHei, Arial, sans-serif" font-size="26" font-weight="400" fill="#1F2937" text-anchor="middle"><tspan x="1715.0" y="681.0">课程维护处理</tspan><tspan x="1715.0" y="715.0">补资源 / 补测验</tspan><tspan x="1715.0" y="749.0">修订映射</tspan></text><path d="M 1950,295 L 1950,620 L 685,620 L 685,650" fill="none" stroke="#475569" stroke-width="2.2" marker-end="url(#arrow)"/><rect x="625.16" y="581" width="169.68000000000004" height="32" rx="8" ry="8" fill="#FFFFFF" stroke="#FFFFFF" stroke-width="0"/><text font-family="Microsoft YaHei, SimHei, Arial, sans-serif" font-size="22" font-weight="600" fill="#475569" text-anchor="middle"><tspan x="710" y="606.0">完成结果与风险</tspan></text><path d="M 895,715 L 990,715" fill="none" stroke="#475569" stroke-width="2.2" marker-end="url(#arrow)"/><path d="M 1410,715 L 1505,715" fill="none" stroke="#475569" stroke-width="2.2" marker-end="url(#arrow)"/><path d="M 1715,650 L 1715,430 L 270,430 L 270,295" fill="none" stroke="#475569" stroke-width="2.2" marker-end="url(#arrow)" stroke-dasharray="10 8"/><rect x="970.4" y="391.0" width="129.20000000000002" height="32" rx="8" ry="8" fill="#FFFFFF" stroke="#FFFFFF" stroke-width="0"/><text font-family="Microsoft YaHei, SimHei, Arial, sans-serif" font-size="22" font-weight="600" fill="#475569" text-anchor="middle"><tspan x="1035.0" y="416.0">发布新版本</tspan></text><rect x="500" y="955" width="410" height="95" rx="16" ry="16" fill="#FFFFFF" stroke="#4A5568" stroke-width="2"/><text font-family="Microsoft YaHei, SimHei, Arial, sans-serif" font-size="26" font-weight="400" fill="#1F2937" text-anchor="middle"><tspan x="705.0" y="985.5">证据不足时</tspan><tspan x="705.0" y="1019.5">提示补测验、补作业或补学习记录</tspan></text><rect x="995" y="955" width="410" height="95" rx="16" ry="16" fill="#FFFFFF" stroke="#4A5568" stroke-width="2"/><text font-family="Microsoft YaHei, SimHei, Arial, sans-serif" font-size="26" font-weight="400" fill="#1F2937" text-anchor="middle"><tspan x="1200.0" y="985.5">需要正式干预时</tspan><tspan x="1200.0" y="1019.5">生成任务包草稿，教师确认后下发</tspan></text><rect x="1490" y="955" width="410" height="95" rx="16" ry="16" fill="#FFFFFF" stroke="#4A5568" stroke-width="2"/><text font-family="Microsoft YaHei, SimHei, Arial, sans-serif" font-size="26" font-weight="400" fill="#1F2937" text-anchor="middle"><tspan x="1695.0" y="985.5">课程需要维护时</tspan><tspan x="1695.0" y="1019.5">教师确认后修订课程底座并发布</tspan></text><text font-family="Microsoft YaHei, SimHei, Arial, sans-serif" font-size="28" font-weight="700" fill="#334155" text-anchor="middle"><tspan x="1200" y="1100.0">闭环原则：系统生成建议和草稿，课程发布、能力映射确认、干预任务下发必须由教师或管理员确认。</tspan></text>
</svg>