<svg xmlns="http://www.w3.org/2000/svg" width="2400" height="1180" viewBox="0 0 2400 1180">
<defs>
<marker id="arrow" markerWidth="12" markerHeight="12" refX="10" refY="6" orient="auto" markerUnits="strokeWidth">
<path d="M2,2 L10,6 L2,10 Z" fill="#475569"/>
</marker>
</defs>
<rect x="0" y="0" width="100%" height="100%" fill="#FFFFFF"/>
<text x="1200.0" y="58" font-family="Microsoft YaHei, SimHei, Arial, sans-serif" font-size="38" font-weight="700" fill="#111827" text-anchor="middle">AI-Education 功能模块结构</text>
<rect x="70" y="150" width="500" height="780" rx="22" ry="22" fill="#E8F4FF" stroke="#2F5F8F" stroke-width="2"/><text font-family="Microsoft YaHei, SimHei, Arial, sans-serif" font-size="30" font-weight="700" fill="#111827" text-anchor="middle"><tspan x="320.0" y="192.0">课程与行业底座</tspan></text><rect x="650" y="150" width="500" height="780" rx="22" ry="22" fill="#EAF8EF" stroke="#2F7D52" stroke-width="2"/><text font-family="Microsoft YaHei, SimHei, Arial, sans-serif" font-size="30" font-weight="700" fill="#111827" text-anchor="middle"><tspan x="900.0" y="192.0">学生学习证据</tspan></text><rect x="1230" y="150" width="500" height="780" rx="22" ry="22" fill="#FFF4E0" stroke="#9A6A19" stroke-width="2"/><text font-family="Microsoft YaHei, SimHei, Arial, sans-serif" font-size="30" font-weight="700" fill="#111827" text-anchor="middle"><tspan x="1480.0" y="192.0">画像、诊断与路径</tspan></text><rect x="1810" y="150" width="500" height="780" rx="22" ry="22" fill="#F2EAFE" stroke="#7253A3" stroke-width="2"/><text font-family="Microsoft YaHei, SimHei, Arial, sans-serif" font-size="30" font-weight="700" fill="#111827" text-anchor="middle"><tspan x="2060.0" y="192.0">教师决策与反馈</tspan></text><rect x="120" y="250" width="400" height="120" rx="16" ry="16" fill="#D7EBFF" stroke="#2F5F8F" stroke-width="2"/><text font-family="Microsoft YaHei, SimHei, Arial, sans-serif" font-size="26" font-weight="400" fill="#1F2937" text-anchor="middle"><tspan x="320.0" y="293.0">3.12 行业情报与能力对接</tspan><tspan x="320.0" y="327.0">岗位检索 / 能力提取 / 来源依据</tspan></text><rect x="120" y="430" width="400" height="140" rx="16" ry="16" fill="#D7EBFF" stroke="#2F5F8F" stroke-width="2"/><text font-family="Microsoft YaHei, SimHei, Arial, sans-serif" font-size="26" font-weight="400" fill="#1F2937" text-anchor="middle"><tspan x="320.0" y="466.0">3.1 课程数字孪生</tspan><tspan x="320.0" y="500.0">课程图谱 / 资源 / 作业关系</tspan><tspan x="320.0" y="534.0">职业能力映射 / 运行评估</tspan></text><rect x="700" y="235" width="400" height="105" rx="16" ry="16" fill="#DDF3E5" stroke="#2F7D52" stroke-width="2"/><text font-family="Microsoft YaHei, SimHei, Arial, sans-serif" font-size="26" font-weight="400" fill="#1F2937" text-anchor="middle"><tspan x="900.0" y="270.5">3.2 学生学习空间</tspan><tspan x="900.0" y="304.5">资源学习 / 任务入口 / 进度记录</tspan></text><rect x="700" y="370" width="400" height="95" rx="16" ry="16" fill="#DDF3E5" stroke="#2F7D52" stroke-width="2"/><text font-family="Microsoft YaHei, SimHei, Arial, sans-serif" font-size="26" font-weight="400" fill="#1F2937" text-anchor="middle"><tspan x="900.0" y="400.5">3.3 在线测验</tspan><tspan x="900.0" y="434.5">知识点小测 / 判分 / 证据回流</tspan></text><rect x="700" y="495" width="400" height="95" rx="16" ry="16" fill="#DDF3E5" stroke="#2F7D52" stroke-width="2"/><text font-family="Microsoft YaHei, SimHei, Arial, sans-serif" font-size="26" font-weight="400" fill="#1F2937" text-anchor="middle"><tspan x="900.0" y="525.5">3.8 作业与实践评测</tspan><tspan x="900.0" y="559.5">作业 / 代码题 / 评分结果</tspan></text><rect x="700" y="620" width="400" height="95" rx="16" ry="16" fill="#DDF3E5" stroke="#2F7D52" stroke-width="2"/><text font-family="Microsoft YaHei, SimHei, Arial, sans-serif" font-size="26" font-weight="400" fill="#1F2937" text-anchor="middle"><tspan x="900.0" y="650.5">3.7 5E 教学智能体</tspan><tspan x="900.0" y="684.5">阶段引导 / 互动 / 有效度</tspan></text><rect x="700" y="745" width="400" height="95" rx="16" ry="16" fill="#DDF3E5" stroke="#2F7D52" stroke-width="2"/><text font-family="Microsoft YaHei, SimHei, Arial, sans-serif" font-size="26" font-weight="400" fill="#1F2937" text-anchor="middle"><tspan x="900.0" y="775.5">3.11 教学互动</tspan><tspan x="900.0" y="809.5">答疑 / 讨论 / 反馈记录</tspan></text><rect x="1280" y="270" width="400" height="120" rx="16" ry="16" fill="#FFE7B8" stroke="#9A6A19" stroke-width="2"/><text font-family="Microsoft YaHei, SimHei, Arial, sans-serif" font-size="26" font-weight="400" fill="#1F2937" text-anchor="middle"><tspan x="1480.0" y="313.0">3.4 学生数字孪生</tspan><tspan x="1480.0" y="347.0">画像 / 掌握度 / 实践能力</tspan></text><rect x="1280" y="460" width="400" height="120" rx="16" ry="16" fill="#FFE7B8" stroke="#9A6A19" stroke-width="2"/><text font-family="Microsoft YaHei, SimHei, Arial, sans-serif" font-size="26" font-weight="400" fill="#1F2937" text-anchor="middle"><tspan x="1480.0" y="503.0">3.5 诊断智能体</tspan><tspan x="1480.0" y="537.0">原因解释 / 依据等级 / 建议动作</tspan></text><rect x="1280" y="650" width="400" height="120" rx="16" ry="16" fill="#FFE7B8" stroke="#9A6A19" stroke-width="2"/><text font-family="Microsoft YaHei, SimHei, Arial, sans-serif" font-size="26" font-weight="400" fill="#1F2937" text-anchor="middle"><tspan x="1480.0" y="693.0">3.6 个性化学习路径</tspan><tspan x="1480.0" y="727.0">补学节点 / 任务安排 / 路径调整</tspan></text><rect x="1860" y="300" width="400" height="130" rx="16" ry="16" fill="#E8D9FF" stroke="#7253A3" stroke-width="2"/><text font-family="Microsoft YaHei, SimHei, Arial, sans-serif" font-size="26" font-weight="400" fill="#1F2937" text-anchor="middle"><tspan x="2060.0" y="348.0">3.10 教师看板与教师数字孪生</tspan><tspan x="2060.0" y="382.0">班级学情 / 教师画像 / 证据下钻</tspan></text><rect x="1860" y="560" width="400" height="125" rx="16" ry="16" fill="#E8D9FF" stroke="#7253A3" stroke-width="2"/><text font-family="Microsoft YaHei, SimHei, Arial, sans-serif" font-size="26" font-weight="400" fill="#1F2937" text-anchor="middle"><tspan x="2060.0" y="605.5">3.9 教师智能干预任务包</tspan><tspan x="2060.0" y="639.5">草稿生成 / 教师审核 / 结果回流</tspan></text><path d="M 520,500 L 650,500" fill="none" stroke="#475569" stroke-width="2.2" marker-end="url(#arrow)"/><rect x="500.15999999999997" y="461.0" width="169.68000000000004" height="32" rx="8" ry="8" fill="#FFFFFF" stroke="#FFFFFF" stroke-width="0"/><text font-family="Microsoft YaHei, SimHei, Arial, sans-serif" font-size="22" font-weight="600" fill="#475569" text-anchor="middle"><tspan x="585.0" y="486.0">已发布课程底座</tspan></text><path d="M 1100,500 L 1230,500" fill="none" stroke="#475569" stroke-width="2.2" marker-end="url(#arrow)"/><rect x="1110.52" y="461.0" width="108.96000000000001" height="32" rx="8" ry="8" fill="#FFFFFF" stroke="#FFFFFF" stroke-width="0"/><text font-family="Microsoft YaHei, SimHei, Arial, sans-serif" font-size="22" font-weight="600" fill="#475569" text-anchor="middle"><tspan x="1165.0" y="486.0">学习证据</tspan></text><path d="M 1680,520 L 1810,520" fill="none" stroke="#475569" stroke-width="2.2" marker-end="url(#arrow)"/><rect x="1650.04" y="481.0" width="189.92000000000004" height="32" rx="8" ry="8" fill="#FFFFFF" stroke="#FFFFFF" stroke-width="0"/><text font-family="Microsoft YaHei, SimHei, Arial, sans-serif" font-size="22" font-weight="600" fill="#475569" text-anchor="middle"><tspan x="1745.0" y="506.0">风险、依据与建议</tspan></text><path d="M 2010,690 L 2010,1010 L 320,1010 L 320,570" fill="none" stroke="#475569" stroke-width="2.2" marker-end="url(#arrow)" stroke-dasharray="10 8"/><rect x="1050.52" y="971.0" width="108.96000000000001" height="32" rx="8" ry="8" fill="#FFFFFF" stroke="#FFFFFF" stroke-width="0"/><text font-family="Microsoft YaHei, SimHei, Arial, sans-serif" font-size="22" font-weight="600" fill="#475569" text-anchor="middle"><tspan x="1105.0" y="996.0">维护反馈</tspan></text><path d="M 320,370 L 320,430" fill="none" stroke="#475569" stroke-width="2.2" marker-end="url(#arrow)"/><rect x="245.27999999999997" y="361.0" width="149.44000000000003" height="32" rx="8" ry="8" fill="#FFFFFF" stroke="#FFFFFF" stroke-width="0"/><text font-family="Microsoft YaHei, SimHei, Arial, sans-serif" font-size="22" font-weight="600" fill="#475569" text-anchor="middle"><tspan x="320.0" y="386.0">岗位能力候选</tspan></text><path d="M 1480,770 L 1480,860 L 900,860 L 900,840" fill="none" stroke="#475569" stroke-width="2.2" marker-end="url(#arrow)" stroke-dasharray="10 8"/><rect x="1170.52" y="821.0" width="108.96000000000001" height="32" rx="8" ry="8" fill="#FFFFFF" stroke="#FFFFFF" stroke-width="0"/><text font-family="Microsoft YaHei, SimHei, Arial, sans-serif" font-size="22" font-weight="600" fill="#475569" text-anchor="middle"><tspan x="1225.0" y="846.0">学习任务</tspan></text><text font-family="Microsoft YaHei, SimHei, Arial, sans-serif" font-size="28" font-weight="700" fill="#334155" text-anchor="middle"><tspan x="1200" y="1085.0">主链路：课程底座发布 → 学习证据回流 → 画像诊断路径 → 教师处理反馈 → 课程持续维护</tspan></text>
</svg>